<svg width="48" height="48" viewBox="0 0 48 48" fill="none" xmlns="http://www.w3.org/2000/svg">
  <path d="M0 0H48V48H0V0Z" fill="#00ACE2"/>
  <path d="M37.1122 25.8333C37.349 25.8333 37.5538 25.924 37.7268 26.1055C37.8998 26.2869 37.9864 26.5017 37.9864 26.75V28.5833C37.9864 28.8316 37.8998 29.0464 37.7268 29.2279C37.5538 29.4093 37.349 29.5 37.1122 29.5H36.2381V33.1667C36.2381 33.6823 36.0696 34.1168 35.7327 34.4701C35.3958 34.8234 34.9815 35 34.4898 35H11.762C11.2703 35 10.8559 34.8234 10.519 34.4701C10.1821 34.1168 10.0137 33.6823 10.0137 33.1667V14.8333C10.0137 14.3177 10.1821 13.8832 10.519 13.5299C10.8559 13.1766 11.2703 13 11.762 13H34.4898C34.9815 13 35.3958 13.1766 35.7327 13.5299C36.0696 13.8832 36.2381 14.3177 36.2381 14.8333V18.5H37.1122C37.349 18.5 37.5538 18.5907 37.7268 18.7721C37.8998 18.9536 37.9864 19.1684 37.9864 19.4167V21.25C37.9864 21.4983 37.8998 21.7131 37.7268 21.8945C37.5538 22.076 37.349 22.1667 37.1122 22.1667H36.2381V25.8333H37.1122ZM18.7551 20.3333C18.7551 19.8368 18.5867 19.4071 18.2498 19.0443C17.9129 18.6814 17.4985 18.5 17.0068 18.5H15.2585C14.7851 18.5 14.3753 18.6814 14.0293 19.0443C13.6833 19.4071 13.5103 19.8368 13.5103 20.3333V27.6667C13.5103 28.1823 13.6787 28.6168 14.0156 28.9701C14.3525 29.3234 14.7668 29.5 15.2585 29.5H17.0068C17.4985 29.5 17.9129 29.3234 18.2498 28.9701C18.5867 28.6168 18.7551 28.1823 18.7551 27.6667V20.3333ZM25.7483 19.4167C25.7483 19.1684 25.6618 18.9536 25.4888 18.7721C25.3158 18.5907 25.1109 18.5 24.8742 18.5C24.6374 18.5 24.4325 18.5907 24.2595 18.7721C24.0865 18.9536 24 19.1684 24 19.4167V23.0833C24 23.3316 23.9135 23.5464 23.7405 23.7279C23.5675 23.9093 23.3626 24 23.1259 24C22.8891 24 22.6842 23.9093 22.5112 23.7279C22.3382 23.5464 22.2517 23.3316 22.2517 23.0833V19.4167C22.2517 19.1684 22.1652 18.9536 21.9922 18.7721C21.8192 18.5907 21.6143 18.5 21.3776 18.5C21.1408 18.5 20.9359 18.5907 20.7629 18.7721C20.5899 18.9536 20.5034 19.1684 20.5034 19.4167V24C20.5034 24.4965 20.6719 24.9262 21.0088 25.2891C21.3457 25.6519 21.76 25.8333 22.2517 25.8333H24V28.5833C24 28.8316 24.0865 29.0464 24.2595 29.2279C24.4325 29.4093 24.6374 29.5 24.8742 29.5C25.1109 29.5 25.3158 29.4093 25.4888 29.2279C25.6618 29.0464 25.7483 28.8316 25.7483 28.5833V19.4167ZM32.7415 18.5H30.9932V19.4167C30.9932 19.6649 30.9067 19.8798 30.7337 20.0612C30.5607 20.2426 30.3558 20.3333 30.119 20.3333C29.8823 20.3333 29.6774 20.2426 29.5044 20.0612C29.3314 19.8798 29.2449 19.6649 29.2449 19.4167V18.5H27.4966V20.3333C27.4966 20.849 27.6651 21.2834 28.002 21.6367C28.3389 21.99 28.7532 22.1667 29.2449 22.1667H30.9932C31.4849 22.1667 31.8992 21.99 32.2361 21.6367C32.573 21.2834 32.7415 20.849 32.7415 20.3333V18.5ZM32.7415 25.8333C32.7415 25.3177 32.573 24.8832 32.2361 24.5299C31.8992 24.1766 31.4849 24 30.9932 24H29.2449C28.7532 24 28.3389 24.1766 28.002 24.5299C27.6651 24.8832 27.4966 25.3177 27.4966 25.8333V29.5H32.7415V25.8333ZM29.2449 28.5833V26.75C29.2449 26.5017 29.3314 26.2869 29.5044 26.1055C29.6774 25.924 29.8823 25.8333 30.119 25.8333C30.3558 25.8333 30.5607 25.924 30.7337 26.1055C30.9067 26.2869 30.9932 26.5017 30.9932 26.75V28.5833C30.9932 28.8316 30.9067 29.0464 30.7337 29.2279C30.5607 29.4093 30.3558 29.5 30.119 29.5C29.8823 29.5 29.6774 29.4093 29.5044 29.2279C29.3314 29.0464 29.2449 28.8316 29.2449 28.5833ZM16.1327 27.6667C15.8959 27.6667 15.6911 27.576 15.5181 27.3945C15.3451 27.2131 15.2585 26.9983 15.2585 26.75V21.25C15.2585 21.0017 15.3451 20.7869 15.5181 20.6055C15.6911 20.424 15.8959 20.3333 16.1327 20.3333C16.3694 20.3333 16.5743 20.424 16.7473 20.6055C16.9203 20.7869 17.0068 21.0017 17.0068 21.25V26.75C17.0068 26.9983 16.9203 27.2131 16.7473 27.3945C16.5743 27.576 16.3694 27.6667 16.1327 27.6667Z" fill="white"/>
</svg>
